<svg xmlns="http://www.w3.org/2000/svg" viewBox="0 0 104.6 104.6"><defs><style>.cls-1{fill:#272525;}</style></defs><g id="Layer_2" data-name="Layer 2"><g id="Layer_1-2" data-name="Layer 1"><path class="cls-1" d="M41.3,100.68a53.68,53.68,0,0,1-28-28,50.25,50.25,0,0,1-4.1-20.18,50.29,50.29,0,0,1,4.1-20.18A53.74,53.74,0,0,1,24.59,15.61,53.15,53.15,0,0,1,41.25,4.28a51.76,51.76,0,0,1,40.38,0,53.6,53.6,0,0,1,28.05,28,50.29,50.29,0,0,1,4.1,20.18,50.25,50.25,0,0,1-4.1,20.18,53.68,53.68,0,0,1-28,28,50.12,50.12,0,0,1-20.18,4.1A50.08,50.08,0,0,1,41.3,100.68Zm37.18-8a43.72,43.72,0,0,0,23.23-23.23,43,43,0,0,0,3.35-17,42.53,42.53,0,0,0-3.38-17,44.06,44.06,0,0,0-9.38-13.9,43.37,43.37,0,0,0-13.9-9.35,42.87,42.87,0,0,0-17-3.36A43,43,0,0,0,30.61,21.61a44,44,0,0,0-9.3,13.9,42.87,42.87,0,0,0-3.36,17A43.16,43.16,0,0,0,30.64,83.32a43.53,43.53,0,0,0,13.87,9.36,42.54,42.54,0,0,0,17,3.39A42.75,42.75,0,0,0,78.48,92.68ZM41.05,72.94A4,4,0,0,1,39.84,70a3.81,3.81,0,0,1,1.23-2.87L55.63,52.53,41.07,37.92a4,4,0,0,1,0-5.74A4,4,0,0,1,43.94,31a3.74,3.74,0,0,1,2.88,1.23L61.43,46.79,76.2,32.18A3.8,3.8,0,0,1,79,30.89a4.07,4.07,0,0,1,2.87,7L67.27,52.53,81.84,67.09a4.12,4.12,0,0,1,0,5.85,4,4,0,0,1-5.82,0L61.43,58.33,46.92,72.89a4.06,4.06,0,0,1-5.87,0Z" transform="translate(-9.18 -0.18)"/></g></g></svg>